<svg width="578" height="226" viewBox="0 0 578 226" fill="none" xmlns="http://www.w3.org/2000/svg">
<path d="M265.303 225.929V18.5279" stroke="white" stroke-width="7.97119"/>
<path d="M330.535 65.8667C333.311 65.8667 336.019 66.2729 338.66 67.075C341.311 67.8823 343.274 68.6792 344.556 69.4709L346.41 70.7L341.701 80.0125C341.326 79.7625 340.806 79.4448 340.139 79.0542C339.483 78.6532 338.248 78.1271 336.431 77.4709C334.608 76.8042 332.915 76.4709 331.347 76.4709C329.399 76.4709 327.899 76.8875 326.847 77.7209C325.79 78.5438 325.264 79.6532 325.264 81.0542C325.264 81.7625 325.514 82.4188 326.014 83.0125C326.514 83.6115 327.358 84.2521 328.556 84.9292C329.748 85.6115 330.795 86.1584 331.701 86.575C332.618 86.9917 334.024 87.6115 335.931 88.4292C339.233 89.8459 342.056 91.7625 344.389 94.1792C346.733 96.5959 347.91 99.3354 347.91 102.388C347.91 105.32 347.379 107.882 346.326 110.075C345.269 112.273 343.816 113.986 341.972 115.221C340.139 116.46 338.102 117.377 335.868 117.971C333.628 118.58 331.212 118.888 328.618 118.888C326.378 118.888 324.186 118.658 322.035 118.2C319.894 117.742 318.097 117.174 316.639 116.492C315.191 115.815 313.894 115.148 312.743 114.492C311.587 113.825 310.743 113.263 310.201 112.804L309.389 112.117L315.222 102.325C315.722 102.742 316.399 103.273 317.264 103.908C318.139 104.549 319.681 105.408 321.889 106.492C324.097 107.565 326.045 108.096 327.743 108.096C332.66 108.096 335.118 106.424 335.118 103.075C335.118 102.367 334.941 101.716 334.597 101.117C334.248 100.523 333.628 99.924 332.743 99.325C331.852 98.7313 331.066 98.2573 330.389 97.9084C329.707 97.549 328.587 97.0073 327.035 96.2834C325.493 95.5646 324.347 95.0125 323.597 94.6375C320.498 93.1115 318.102 91.2 316.41 88.9084C314.712 86.6167 313.868 84.148 313.868 81.4917C313.868 76.9084 315.561 73.1584 318.951 70.2417C322.337 67.325 326.201 65.8667 330.535 65.8667Z" fill="#222351" fill-opacity="0.841803"/>
<path d="M399.928 117.95H383.866L365.012 96.2417V117.95H353.366V66.8042H365.012V87.7L382.553 66.8042H396.699L376.116 91.0334L399.928 117.95Z" fill="#222351" fill-opacity="0.841803"/>
<path d="M396.577 66.8042H410.577L421.243 83.1584L431.91 66.8042H445.931L427.077 95.0125V117.95H415.41V95.0125L396.577 66.8042Z" fill="#222351" fill-opacity="0.841803"/>
<path d="M459.438 97.4292V117.95H447.792V66.8042H459.438V87.2H475.938V66.8042H487.584V117.95H475.938V97.4292H459.438Z" fill="white"/>
<path d="M534.328 66.8042V99.7834C534.328 106.065 532.63 110.82 529.245 114.054C525.854 117.278 520.896 118.888 514.37 118.888C507.839 118.888 502.88 117.278 499.495 114.054C496.104 110.82 494.412 106.065 494.412 99.7834V66.8042H506.057V96.3667C506.057 100.507 506.708 103.382 508.016 104.992C509.318 106.606 511.438 107.408 514.37 107.408C517.297 107.408 519.417 106.606 520.724 104.992C522.026 103.382 522.682 100.507 522.682 96.3667V66.8042H534.328Z" fill="white"/>
<path d="M541.165 66.8042H557.019C561.821 66.8042 565.649 67.825 568.498 69.8667C571.342 71.9084 572.769 75.2313 572.769 79.825C572.769 84.95 570.644 88.6115 566.394 90.8042C573.67 92.0854 577.311 96.3823 577.311 103.7C577.311 107.992 575.816 111.445 572.832 114.054C569.858 116.653 565.769 117.95 560.561 117.95H541.165V66.8042ZM552.811 86.825H553.748C556.342 86.825 558.28 86.3771 559.561 85.4709C560.853 84.5542 561.498 83.0646 561.498 80.9917C561.498 77.523 558.915 75.7834 553.748 75.7834H552.811V86.825ZM552.811 108.95H556.478C562.17 108.95 565.019 107.054 565.019 103.263C565.019 100.986 564.3 99.3563 562.873 98.3667C561.457 97.3667 559.321 96.8667 556.478 96.8667H552.811V108.95Z" fill="white"/>
<path d="M315.826 165.228C317.253 165.228 318.472 165.739 319.472 166.749C320.483 167.749 320.993 168.973 320.993 170.416C320.993 171.822 320.483 173.03 319.472 174.041C318.472 175.041 317.253 175.541 315.826 175.541C314.41 175.541 313.191 175.041 312.18 174.041C311.18 173.03 310.68 171.822 310.68 170.416C310.68 168.973 311.18 167.749 312.18 166.749C313.191 165.739 314.41 165.228 315.826 165.228Z" fill="white"/>
<path d="M327.975 172.02C325.819 169.66 324.746 166.765 324.746 163.332C324.746 159.905 325.819 156.999 327.975 154.624C330.142 152.249 332.897 151.062 336.246 151.062C339.298 151.062 341.819 152.03 343.809 153.957V151.749H351.788V174.874H343.892V172.249H343.809C341.819 174.447 339.298 175.541 336.246 175.541C332.897 175.541 330.142 174.369 327.975 172.02ZM334.767 159.416C333.736 160.431 333.225 161.739 333.225 163.332C333.225 164.931 333.715 166.239 334.704 167.249C335.689 168.249 336.996 168.749 338.621 168.749C340.189 168.749 341.475 168.244 342.475 167.228C343.486 166.202 343.996 164.905 343.996 163.332C343.996 161.739 343.475 160.431 342.434 159.416C341.392 158.39 340.121 157.874 338.621 157.874C337.09 157.874 335.809 158.39 334.767 159.416Z" fill="white"/>
<path d="M380.597 164.416H363.826C363.826 166.041 364.347 167.244 365.388 168.02C366.44 168.801 367.586 169.187 368.826 169.187C370.118 169.187 371.138 169.02 371.888 168.687C372.638 168.343 373.498 167.655 374.472 166.624L380.243 169.499C377.836 173.53 373.836 175.541 368.243 175.541C364.753 175.541 361.763 174.348 359.263 171.957C356.774 169.572 355.534 166.697 355.534 163.332C355.534 159.973 356.774 157.093 359.263 154.687C361.763 152.27 364.753 151.062 368.243 151.062C371.909 151.062 374.888 152.124 377.18 154.249C379.482 156.374 380.638 159.405 380.638 163.332C380.638 163.874 380.623 164.239 380.597 164.416ZM364.055 159.999H372.847C372.664 158.791 372.185 157.869 371.409 157.228C370.644 156.577 369.664 156.249 368.472 156.249C367.149 156.249 366.097 156.598 365.305 157.291C364.524 157.989 364.107 158.89 364.055 159.999Z" fill="white"/>
<path d="M384.383 174.874V151.749H392.362V155.082H392.445C392.513 154.957 392.612 154.806 392.737 154.624C392.872 154.447 393.164 154.134 393.612 153.687C394.07 153.228 394.549 152.827 395.049 152.478C395.56 152.119 396.221 151.791 397.029 151.499C397.846 151.207 398.68 151.062 399.529 151.062C400.404 151.062 401.258 151.187 402.091 151.437C402.935 151.676 403.555 151.91 403.945 152.145L404.57 152.52L401.237 159.27C400.247 158.437 398.867 158.02 397.091 158.02C396.133 158.02 395.305 158.228 394.612 158.645C393.914 159.062 393.424 159.577 393.133 160.187C392.852 160.785 392.654 161.291 392.529 161.707C392.414 162.124 392.362 162.457 392.362 162.707V174.874H384.383Z" fill="white"/>
<path d="M409.019 172.124C406.446 169.848 405.165 166.916 405.165 163.332C405.165 159.749 406.498 156.812 409.165 154.52C411.842 152.218 415.149 151.062 419.081 151.062C422.967 151.062 426.238 152.223 428.894 154.541C431.561 156.864 432.894 159.791 432.894 163.332C432.894 166.874 431.587 169.801 428.977 172.103C426.378 174.395 423.081 175.541 419.081 175.541C414.941 175.541 411.587 174.405 409.019 172.124ZM415.186 159.416C414.154 160.431 413.644 161.739 413.644 163.332C413.644 164.931 414.134 166.239 415.123 167.249C416.108 168.249 417.415 168.749 419.04 168.749C420.608 168.749 421.894 168.244 422.894 167.228C423.904 166.202 424.415 164.905 424.415 163.332C424.415 161.739 423.894 160.431 422.852 159.416C421.811 158.39 420.54 157.874 419.04 157.874C417.509 157.874 416.227 158.39 415.186 159.416Z" fill="white"/>
<path d="M221.704 128.908C221.047 138.512 220.381 148.2 217.943 157.523C211.443 182.309 192.178 203.069 168.48 213.648C144.787 224.226 117.167 225.043 92.1412 217.981C81.6569 215.023 71.3548 210.606 63.36 203.304C53.0527 193.898 47.4798 180.59 42.7767 167.549C34.761 145.34 28.4589 120.444 37.6412 98.6841C40.5267 91.8403 49.9589 73.5799 59.8079 69.1424C101.391 50.3924 149.146 38.908 188.928 61.1216C201.464 68.1164 213.157 77.8507 218.532 91.0018C223.365 102.872 222.574 116.142 221.704 128.908Z" fill="#222351" fill-opacity="0.845"/>
<path d="M145.282 29.3872C127.36 22.8924 107.48 21.9913 89.209 27.6111C71.7455 32.9705 55.959 43.7934 44.308 57.8299C32.4642 72.1007 24.9225 89.7205 23.3861 108.241C21.8184 127.101 26.3496 146.538 35.959 162.814C40.5371 170.575 46.3028 177.747 53.1309 183.632C59.9382 189.507 67.7559 194.059 76.11 197.356C93.683 204.293 113.558 205.747 132.126 202.658C150.037 199.674 167.235 191.679 179.818 178.387C192.48 165.012 199.782 147.46 202.188 129.325C202.803 124.674 203.1 119.991 203.105 115.293C203.079 96.6684 198.584 77.6893 188.167 62.0538C178.016 46.7986 162.402 35.5903 145.282 29.3872ZM200.256 115.293C200.23 133.304 195.73 151.45 185.652 166.533C175.824 181.236 161.037 191.627 144.225 196.872C126.787 202.309 107.501 202.762 89.7298 198.611C81.1153 196.596 72.7767 193.403 65.183 188.851C57.6673 184.346 51.1152 178.528 45.5996 171.741C34.183 157.715 27.4798 139.976 26.1882 121.986C24.8757 103.747 29.3861 85.6059 39.0007 70.0538C48.2767 55.0382 61.9798 42.7778 77.8705 35.1059C94.5736 27.0486 113.443 24.7934 131.605 28.5018C149.079 32.0643 165.662 40.809 177.98 53.7934C190.277 66.7465 197.219 84.0434 199.412 101.627C199.98 106.163 200.251 110.726 200.256 115.293ZM167.12 57.6528C167.12 57.6528 187.558 79.9028 183.647 88.2153C181.094 93.6372 177.579 92.5695 175.678 85.8038C173.782 79.0278 170.199 78.5903 168.318 79.533C164.048 81.6684 166.022 91.1945 173.62 96.507C181.225 101.83 183.115 113.054 174.558 120.799C166.001 128.543 169.042 132.601 166.667 135.986C164.292 139.372 158.11 143.721 145.225 152.913C132.334 162.106 141.938 139.007 145.735 129.335C149.532 119.658 140.511 103.689 131.954 95.4705C123.397 87.2465 116.094 90.4913 107.537 82.2674C98.9798 74.0486 112.761 72.1059 111.225 66.783C109.673 61.4653 105.641 62.9184 103.266 57.1111C101.886 53.757 106.704 51.2101 111.469 49.4705C112.735 49.0122 112.334 47.132 110.995 47.2049C107.303 47.408 103.016 47.7674 99.4538 48.4028C91.3757 49.8559 92.9017 62.0226 83.7767 62.9184C73.7298 63.8976 66.1517 54.6476 67.1205 53.783C68.0996 52.9184 94.7559 31.7882 128.147 37.9028C151.443 42.1684 167.12 57.6528 167.12 57.6528ZM109.126 182.08C105.022 185.116 97.9642 188.575 97.9642 188.575C97.9642 188.575 64.3757 177.179 51.7715 158.71C35.7194 135.179 40.2507 115.465 40.2507 115.465C40.2507 115.465 57.8028 105.523 62.8184 118.668C67.8288 131.814 69.5215 123.887 78.5163 141.278C87.5111 158.684 86.6048 171.038 97.7871 170.413C108.964 169.783 113.225 179.049 109.126 182.08ZM168.688 153.158C165.178 159.668 151.178 170.799 156.62 156.382C156.61 156.382 172.204 146.658 168.688 153.158ZM183.923 130.075C193.459 128.819 192.516 144.215 188.928 146.267C186.574 147.611 186.266 144.158 184.652 142.486C183.037 140.814 181.318 146.137 176.61 146.116C171.902 146.09 174.798 142.023 176.391 137.413C177.995 132.793 172.735 131.538 183.923 130.075ZM12.9746 182.194C12.8809 182.007 12.7975 181.804 12.709 181.616C10.735 177.283 9.11004 172.778 7.65692 168.241C4.84442 159.46 2.78713 150.434 1.51109 141.309C-0.155581 129.351 -0.520165 117.215 0.802752 105.2C2.33921 91.1945 6.11004 77.5174 12.1778 64.7882C18.8913 50.6736 28.3913 37.6372 39.9278 27.0851C49.6257 18.2205 60.9069 11.2309 73.2246 6.65279C83.8913 2.68925 95.209 0.605919 106.568 0.111127C116.334 -0.305539 126.126 0.465294 135.745 2.158C142.704 3.38196 149.584 5.10071 156.287 7.33508C159.001 8.24134 161.73 9.21008 164.339 10.3768C166.011 11.1268 164.558 13.5903 162.907 12.8403C162.745 12.7622 162.584 12.6945 162.423 12.632C162.897 12.8403 162.344 12.6007 162.11 12.4965C161.824 12.382 161.537 12.2674 161.256 12.1528C160.449 11.8299 159.641 11.5278 158.834 11.2309C156.449 10.3559 154.037 9.56946 151.605 8.83508C144.292 6.64238 136.787 5.00696 129.219 4.00696C119.324 2.69967 109.266 2.44967 99.334 3.49654C87.985 4.69446 76.7663 7.67884 66.4434 12.5747C54.2507 18.3507 43.4642 26.6684 34.4225 36.6684C24.0215 48.1736 15.7507 61.684 10.4121 76.2413C5.85483 88.684 3.40171 101.819 2.92775 115.059C2.5215 126.309 3.47984 137.59 5.60484 148.648C7.1465 156.622 9.25588 164.491 11.9903 172.142C12.433 173.403 12.9121 174.658 13.3965 175.903C13.5944 176.418 13.7923 176.924 14.0007 177.424C14.0944 177.663 14.1934 177.898 14.2975 178.137C14.334 178.231 14.3705 178.33 14.4121 178.413C14.4121 178.424 14.4121 178.424 14.4173 178.434C14.7507 179.21 15.084 179.991 15.4434 180.752C16.235 182.403 13.7715 183.84 12.9746 182.194ZM16.6309 197.747C16.6257 197.747 16.6153 197.747 16.6048 197.736C16.6153 197.736 16.6257 197.736 16.6309 197.747ZM23.4538 196.017C23.1882 195.314 22.9278 194.611 22.6621 193.903C22.6621 193.898 22.6517 193.898 22.6517 193.887C22.6257 193.773 22.5788 193.658 22.5215 193.564C22.5007 193.533 22.485 193.523 22.4642 193.507C22.3496 193.325 22.209 193.174 22.0059 193.049C21.7038 192.872 21.2507 192.793 20.9069 192.908C20.8132 192.934 20.7142 192.981 20.6309 193.033C20.61 193.038 20.584 193.038 20.5632 193.049C19.0632 193.741 17.5736 194.439 16.0736 195.132C15.7767 195.262 15.485 195.674 15.4173 195.986C15.3392 196.309 15.36 196.616 15.4955 196.918C15.709 197.429 16.1569 197.715 16.6621 197.773C16.7194 197.809 16.7767 197.84 16.8236 197.877C16.834 197.887 16.8496 197.898 16.8705 197.918C16.8965 197.934 16.9173 197.955 16.9278 197.965C17.0788 198.096 17.2402 198.231 17.3913 198.361C18.1309 199.007 18.8809 199.648 19.8132 199.997C20.334 200.2 20.9173 200.226 21.459 200.09C22.1309 199.924 22.6465 199.465 23.0423 198.913C23.1778 198.731 23.2923 198.543 23.3861 198.346C23.6153 197.861 23.8965 197.288 23.7246 196.747C23.6413 196.481 23.5371 196.252 23.4538 196.017ZM16.6517 197.757C16.3965 197.7 16.4538 197.642 16.6153 197.736C16.6257 197.736 16.6257 197.747 16.6309 197.747C16.6517 197.757 16.6725 197.757 16.6986 197.762C16.8132 197.773 16.9278 197.762 17.0423 197.747C16.9278 197.762 16.8028 197.783 16.8913 197.783C17.0215 197.783 16.9538 197.851 16.709 197.773C16.6986 197.773 16.6986 197.773 16.6882 197.773C16.6725 197.762 16.6621 197.762 16.6413 197.757C16.6413 197.747 16.6413 197.747 16.6517 197.757ZM16.6882 197.762C16.6882 197.757 16.6882 197.762 16.6882 197.762C16.7194 197.773 16.7455 197.783 16.7559 197.783C16.7298 197.783 16.7194 197.773 16.6986 197.773C16.6986 197.762 16.6882 197.762 16.6882 197.762ZM208.475 31.7257C205.683 29.4132 202.886 27.1059 200.094 24.8038C199.933 22.5903 199.99 20.3768 200.032 18.1528C200.048 16.934 200.048 15.7205 199.98 14.5018C199.928 13.4965 199.886 12.4184 199.261 11.5851C198.548 10.6268 197.277 10.3559 196.219 10.9184C195.167 11.4809 194.636 12.6007 194.235 13.6736C193.636 15.2986 193.152 16.9809 192.662 18.658C190.829 17.1372 188.985 15.6215 187.152 14.1007C186.495 13.559 185.673 13.0122 185.308 12.1997C184.938 11.3559 184.928 10.3507 184.766 9.44446C184.475 7.86113 183.61 6.39759 182.089 5.71008C177.881 3.81946 176.772 10.434 176.574 13.1997C176.334 16.5643 177.959 19.0434 180.209 21.0799C178.631 21.309 177.068 21.5434 175.49 21.7934C173.428 22.1268 171.365 22.4653 169.324 22.8872C167.558 23.2465 164.37 23.8924 165.537 26.4705C166.62 28.8455 170.058 29.3455 172.308 29.7101C175.454 30.2153 178.605 30.7049 181.787 31.0018C184.761 31.2778 187.855 31.0851 190.761 31.8299C193.563 32.5434 195.792 34.4236 198.261 35.8299C200.704 37.2257 203.657 38.2153 206.48 37.5018C207.704 37.1893 209.147 36.507 209.699 35.2986C210.313 33.9184 209.506 32.6163 208.475 31.7257ZM196.527 15.8611C196.667 15.3872 196.808 14.9028 196.98 14.434C197.001 14.3872 197.048 14.3038 197.105 14.1997C197.287 16.9184 197.115 19.6424 197.131 22.3611C196.438 21.783 195.735 21.2101 195.042 20.632C195.537 19.0434 196.032 17.4497 196.527 15.8611ZM205.891 34.7101C204.902 34.9913 203.85 34.9288 202.86 34.6893C200.6 34.1476 198.719 32.7674 196.782 31.5434C194.824 30.309 192.792 29.283 190.495 28.8611C188.074 28.4184 185.605 28.4445 183.147 28.2622C180.522 28.0747 177.923 27.7205 175.318 27.3247C173.313 27.0122 170.772 26.9445 168.949 25.8872C168.985 25.8768 169.022 25.8611 169.053 25.8611C169.85 25.6788 170.647 25.5278 171.443 25.3768C173.136 25.0538 174.834 24.7674 176.532 24.5018C178.225 24.2361 179.917 23.9757 181.605 23.7413C182.183 23.6528 182.772 23.5799 183.355 23.4913C183.412 23.4861 183.574 23.4653 183.678 23.4445C183.693 23.4445 183.704 23.4445 183.725 23.434C183.772 23.4288 183.792 23.4288 183.725 23.434C185.1 23.257 185.688 21.632 184.443 20.783C182.876 19.7205 181.225 18.559 180.219 16.9184C179.053 14.9861 179.334 12.809 179.886 10.7309C179.99 10.3403 180.303 8.38196 180.725 8.24134C181.433 8.00175 181.912 9.65279 181.985 10.0278C182.391 12.0122 182.501 13.7518 184.074 15.2361C185.766 16.8299 187.673 18.2361 189.469 19.7101C191.339 21.2518 193.204 22.7882 195.074 24.3403C198.87 27.4757 202.662 30.6007 206.459 33.7413C206.506 33.7778 206.85 34.158 206.943 34.184C206.943 34.184 206.943 34.184 206.954 34.184C206.62 34.4132 206.277 34.5955 205.891 34.7101ZM207.068 34.2309C207.105 34.2882 207.209 34.2882 207.068 34.2309V34.2309Z" fill="#FAFAFA"/>
</svg>
